<svg width="69" height="69" viewBox="0 0 69 69" fill="none" xmlns="http://www.w3.org/2000/svg">
<path fill-rule="evenodd" clip-rule="evenodd" d="M34.5 69C53.5538 69 69 53.5538 69 34.5C69 15.4462 53.5538 0 34.5 0C15.4462 0 0 15.4462 0 34.5C0 53.5538 15.4462 69 34.5 69Z" fill="#5454D4" fill-opacity="0.1"/>
<path d="M45.3478 29.7405C42.9294 29.7405 38.8982 32.6561 34.6312 35.7434C30.8845 38.4542 26.6375 41.5267 24.6522 41.5267C21.7999 41.5267 19.4783 39.2129 19.4783 36.3702C19.4783 33.5276 21.7999 31.2138 24.6522 31.2138C25.1518 31.2138 25.8281 31.4031 26.639 31.75L24.7793 35.1393C24.6403 35.3913 24.6625 35.7006 24.834 35.9312C24.9744 36.1213 25.1962 36.2288 25.4275 36.2288C25.477 36.2288 25.5288 36.2237 25.579 36.2133L32.1943 34.8351C32.4042 34.7909 32.5853 34.659 32.6895 34.4712C32.7937 34.2833 32.8107 34.0601 32.736 33.8598L30.376 27.482C30.2755 27.2109 30.0257 27.023 29.7367 27.0024C29.4528 26.9788 29.1727 27.1306 29.0345 27.384L27.3485 30.4572C26.279 29.988 25.3721 29.7405 24.6522 29.7405C20.9839 29.7405 18 32.7143 18 36.3702C18 40.0262 20.9839 43 24.6522 43C27.1172 43 31.189 40.0542 35.4997 36.936C39.2064 34.2539 43.4091 31.2138 45.3478 31.2138C48.2001 31.2138 50.5217 33.5276 50.5217 36.3702C50.5217 39.2129 48.2001 41.5267 45.3478 41.5267C44.177 41.5267 42.0498 40.5242 39.3579 38.7032C39.0209 38.4734 38.5611 38.5632 38.3313 38.8991C38.1014 39.2358 38.1901 39.694 38.5279 39.9223C41.5465 41.9643 43.8415 43 45.3478 43C49.0161 43 52 40.0262 52 36.3702C52 32.7143 49.0161 29.7405 45.3478 29.7405Z" fill="#5454D4"/>
</svg>
