<svg width="124" height="124" viewBox="0 0 124 124" fill="none" xmlns="http://www.w3.org/2000/svg">
<path fill-rule="evenodd" clip-rule="evenodd" d="M62 124C96.2417 124 124 96.2417 124 62C124 27.7583 96.2417 0 62 0C27.7583 0 0 27.7583 0 62C0 96.2417 27.7583 124 62 124Z" fill="#5454D4"/>
<path d="M71.74 61.565L52.7661 51.0653C52.6074 50.9773 52.4126 50.9783 52.2548 51.0679C52.0969 51.1575 51.9999 51.3222 52 51.5003V72.4997C51.9999 72.6778 52.0969 72.8425 52.2548 72.9321C52.4126 73.0217 52.6074 73.0227 52.7661 72.9347L71.74 62.435C71.9007 62.3462 72 62.1801 72 62C72 61.8199 71.9007 61.6538 71.74 61.565Z" fill="white"/>
</svg>
