<svg width="69" height="69" viewBox="0 0 69 69" fill="none" xmlns="http://www.w3.org/2000/svg">
<path fill-rule="evenodd" clip-rule="evenodd" d="M34.5 69C53.5538 69 69 53.5538 69 34.5C69 15.4462 53.5538 0 34.5 0C15.4462 0 0 15.4462 0 34.5C0 53.5538 15.4462 69 34.5 69Z" fill="#FEDC5A" fill-opacity="0.1"/>
<path d="M34 26.1763C30.5011 25.4476 26.7718 26.9995 24.1235 30.4278C23.9428 30.6615 23.9624 30.9956 24.1691 31.2058L26.9167 34C28.7587 30.9515 31.1641 28.2946 34 26.1763Z" fill="#FEDC5A"/>
<path d="M37 44.0874L39.803 46.832C40.0127 47.0374 40.3461 47.0568 40.5793 46.8773C44.0215 44.2285 45.5712 40.4952 44.8101 37C42.6936 39.83 40.0423 42.236 37 44.0874V44.0874Z" fill="#FEDC5A"/>
<path fill-rule="evenodd" clip-rule="evenodd" d="M47.3903 22.0009C47.5553 21.9915 47.7161 22.055 47.8302 22.1746C47.946 22.2902 48.0074 22.4494 47.9993 22.6128C47.1002 38.4273 33.2946 43.9079 33.1545 43.9618C33.0884 43.9873 33.0181 44.0002 32.9472 44C32.7937 44 32.6465 43.9389 32.5379 43.8304L26.1698 37.4622C26.0089 37.3015 25.957 37.0614 26.0372 36.8486C26.0905 36.7085 31.5034 22.8305 47.3903 22.0009ZM34.1051 33.5794C34.1051 34.8583 35.1419 35.8951 36.4208 35.8951C37.6997 35.8951 38.7365 34.8583 38.7365 33.5794C38.7365 32.3005 37.6997 31.2637 36.4208 31.2637C35.1419 31.2637 34.1051 32.3005 34.1051 33.5794Z" fill="#FEDC5A"/>
<path d="M27.9196 42.9451C26.4767 41.685 24.1407 41.685 22.6979 42.9451C21.3706 44.1062 21.0365 47.9864 21.0014 48.4254C20.99 48.5743 21.0497 48.7208 21.1664 48.8297C21.283 48.9387 21.4461 49.0003 21.6167 49H21.6579C22.1594 48.9698 26.5929 48.6769 27.9196 47.5163C29.3601 46.2534 29.3601 44.208 27.9196 42.9451Z" fill="#FEDC5A"/>
</svg>
